<?xml version="1.0" encoding="UTF-8" standalone="no"?>
<!DOCTYPE svg PUBLIC "-//W3C//DTD SVG 1.1//EN"
 "http://www.w3.org/Graphics/SVG/1.1/DTD/svg11.dtd">
<!-- Generated by graphviz version 2.43.0 (0)
 -->
<!-- Title: %3 Pages: 1 -->
<svg width="1644pt" height="332pt"
 viewBox="0.00 0.00 1643.51 332.00" xmlns="http://www.w3.org/2000/svg" xmlns:xlink="http://www.w3.org/1999/xlink">
<g id="graph0" class="graph" transform="scale(1 1) rotate(0) translate(4 328)">
<title>%3</title>
<polygon fill="white" stroke="transparent" points="-4,4 -4,-328 1639.51,-328 1639.51,4 -4,4"/>
<!-- [root] azurerm_resource_group.rg (expand) -->
<g id="node1" class="node">
<title>[root] azurerm_resource_group.rg (expand)</title>
<polygon fill="none" stroke="black" points="905.77,-180 690.77,-180 690.77,-144 905.77,-144 905.77,-180"/>
<text text-anchor="middle" x="798.27" y="-158.3" font-family="Times,serif" font-size="14.00">azurerm_resource_group.rg</text>
</g>
<!-- [root] provider[&quot;registry.terraform.io/hashicorp/azurerm&quot;] -->
<g id="node5" class="node">
<title>[root] provider[&quot;registry.terraform.io/hashicorp/azurerm&quot;]</title>
<polygon fill="none" stroke="black" points="956.27,-108 601.68,-90 956.27,-72 1310.86,-90 956.27,-108"/>
<text text-anchor="middle" x="956.27" y="-86.3" font-family="Times,serif" font-size="14.00">provider[&quot;registry.terraform.io/hashicorp/azurerm&quot;]</text>
</g>
<!-- [root] azurerm_resource_group.rg (expand)&#45;&gt;[root] provider[&quot;registry.terraform.io/hashicorp/azurerm&quot;] -->
<g id="edge2" class="edge">
<title>[root] azurerm_resource_group.rg (expand)&#45;&gt;[root] provider[&quot;registry.terraform.io/hashicorp/azurerm&quot;]</title>
<path fill="none" stroke="black" d="M836.92,-143.88C859.73,-133.77 888.66,-120.95 912.33,-110.47"/>
<polygon fill="black" stroke="black" points="914.06,-113.53 921.78,-106.28 911.22,-107.13 914.06,-113.53"/>
</g>
<!-- [root] var.location -->
<g id="node7" class="node">
<title>[root] var.location</title>
<polygon fill="none" stroke="black" points="577.77,-108 484.77,-108 484.77,-72 583.77,-72 583.77,-102 577.77,-108"/>
<polyline fill="none" stroke="black" points="577.77,-108 577.77,-102 "/>
<polyline fill="none" stroke="black" points="583.77,-102 577.77,-102 "/>
<text text-anchor="middle" x="534.27" y="-86.3" font-family="Times,serif" font-size="14.00">var.location</text>
</g>
<!-- [root] azurerm_resource_group.rg (expand)&#45;&gt;[root] var.location -->
<g id="edge3" class="edge">
<title>[root] azurerm_resource_group.rg (expand)&#45;&gt;[root] var.location</title>
<path fill="none" stroke="black" d="M729.45,-143.9C691.78,-134.4 644.04,-122.13 593.68,-108.35"/>
<polygon fill="black" stroke="black" points="594.49,-104.94 583.92,-105.67 592.63,-111.69 594.49,-104.94"/>
</g>
<!-- [root] var.rg&#45;name -->
<g id="node8" class="node">
<title>[root] var.rg&#45;name</title>
<polygon fill="none" stroke="black" points="1425.27,-108 1329.27,-108 1329.27,-72 1431.27,-72 1431.27,-102 1425.27,-108"/>
<polyline fill="none" stroke="black" points="1425.27,-108 1425.27,-102 "/>
<polyline fill="none" stroke="black" points="1431.27,-102 1425.27,-102 "/>
<text text-anchor="middle" x="1380.27" y="-86.3" font-family="Times,serif" font-size="14.00">var.rg&#45;name</text>
</g>
<!-- [root] azurerm_resource_group.rg (expand)&#45;&gt;[root] var.rg&#45;name -->
<g id="edge4" class="edge">
<title>[root] azurerm_resource_group.rg (expand)&#45;&gt;[root] var.rg&#45;name</title>
<path fill="none" stroke="black" d="M905.98,-145.12C909.11,-144.73 912.21,-144.36 915.27,-144 1091.51,-123.38 1140.79,-140.15 1319.06,-108.02"/>
<polygon fill="black" stroke="black" points="1319.83,-111.44 1329.03,-106.2 1318.57,-104.56 1319.83,-111.44"/>
</g>
<!-- [root] local.custom_tags (expand) -->
<g id="node10" class="node">
<title>[root] local.custom_tags (expand)</title>
<ellipse fill="none" stroke="black" cx="301.27" cy="-90" rx="165.17" ry="18"/>
<text text-anchor="middle" x="301.27" y="-86.3" font-family="Times,serif" font-size="14.00">[root] local.custom_tags (expand)</text>
</g>
<!-- [root] azurerm_resource_group.rg (expand)&#45;&gt;[root] local.custom_tags (expand) -->
<g id="edge1" class="edge">
<title>[root] azurerm_resource_group.rg (expand)&#45;&gt;[root] local.custom_tags (expand)</title>
<path fill="none" stroke="black" d="M690.53,-145.32C687.41,-144.88 684.32,-144.43 681.27,-144 589.6,-130.95 485.44,-116.44 409.39,-105.91"/>
<polygon fill="black" stroke="black" points="409.7,-102.42 399.32,-104.52 408.74,-109.36 409.7,-102.42"/>
</g>
<!-- [root] azurerm_resource_group.rg&#45;count (expand) -->
<g id="node2" class="node">
<title>[root] azurerm_resource_group.rg&#45;count (expand)</title>
<polygon fill="none" stroke="black" points="377.77,-180 118.77,-180 118.77,-144 377.77,-144 377.77,-180"/>
<text text-anchor="middle" x="248.27" y="-158.3" font-family="Times,serif" font-size="14.00">azurerm_resource_group.rg&#45;count</text>
</g>
<!-- [root] azurerm_resource_group.rg&#45;count (expand)&#45;&gt;[root] provider[&quot;registry.terraform.io/hashicorp/azurerm&quot;] -->
<g id="edge6" class="edge">
<title>[root] azurerm_resource_group.rg&#45;count (expand)&#45;&gt;[root] provider[&quot;registry.terraform.io/hashicorp/azurerm&quot;]</title>
<path fill="none" stroke="black" d="M377.91,-144.92C380.72,-144.6 383.51,-144.3 386.27,-144 534.34,-128 704.37,-112.57 819.92,-102.53"/>
<polygon fill="black" stroke="black" points="820.57,-105.98 830.23,-101.63 819.96,-99.01 820.57,-105.98"/>
</g>
<!-- [root] azurerm_resource_group.rg&#45;count (expand)&#45;&gt;[root] var.location -->
<g id="edge7" class="edge">
<title>[root] azurerm_resource_group.rg&#45;count (expand)&#45;&gt;[root] var.location</title>
<path fill="none" stroke="black" d="M325.74,-143.95C367.23,-134.57 419.43,-122.38 474.75,-108.07"/>
<polygon fill="black" stroke="black" points="475.95,-111.37 484.75,-105.47 474.19,-104.6 475.95,-111.37"/>
</g>
<!-- [root] var.rg&#45;names -->
<g id="node9" class="node">
<title>[root] var.rg&#45;names</title>
<polygon fill="none" stroke="black" points="112.27,-108 8.27,-108 8.27,-72 118.27,-72 118.27,-102 112.27,-108"/>
<polyline fill="none" stroke="black" points="112.27,-108 112.27,-102 "/>
<polyline fill="none" stroke="black" points="118.27,-102 112.27,-102 "/>
<text text-anchor="middle" x="63.27" y="-86.3" font-family="Times,serif" font-size="14.00">var.rg&#45;names</text>
</g>
<!-- [root] azurerm_resource_group.rg&#45;count (expand)&#45;&gt;[root] var.rg&#45;names -->
<g id="edge8" class="edge">
<title>[root] azurerm_resource_group.rg&#45;count (expand)&#45;&gt;[root] var.rg&#45;names</title>
<path fill="none" stroke="black" d="M203.02,-143.88C177.28,-134.14 144.86,-121.87 117.74,-111.61"/>
<polygon fill="black" stroke="black" points="118.97,-108.33 108.38,-108.07 116.5,-114.88 118.97,-108.33"/>
</g>
<!-- [root] azurerm_resource_group.rg&#45;count (expand)&#45;&gt;[root] local.custom_tags (expand) -->
<g id="edge5" class="edge">
<title>[root] azurerm_resource_group.rg&#45;count (expand)&#45;&gt;[root] local.custom_tags (expand)</title>
<path fill="none" stroke="black" d="M261.37,-143.7C267.66,-135.39 275.32,-125.28 282.24,-116.14"/>
<polygon fill="black" stroke="black" points="285.08,-118.19 288.32,-108.1 279.49,-113.96 285.08,-118.19"/>
</g>
<!-- [root] azurerm_resource_group.rg&#45;for&#45;each (expand) -->
<g id="node3" class="node">
<title>[root] azurerm_resource_group.rg&#45;for&#45;each (expand)</title>
<polygon fill="none" stroke="black" points="672.77,-180 395.77,-180 395.77,-144 672.77,-144 672.77,-180"/>
<text text-anchor="middle" x="534.27" y="-158.3" font-family="Times,serif" font-size="14.00">azurerm_resource_group.rg&#45;for&#45;each</text>
</g>
<!-- [root] azurerm_resource_group.rg&#45;for&#45;each (expand)&#45;&gt;[root] provider[&quot;registry.terraform.io/hashicorp/azurerm&quot;] -->
<g id="edge10" class="edge">
<title>[root] azurerm_resource_group.rg&#45;for&#45;each (expand)&#45;&gt;[root] provider[&quot;registry.terraform.io/hashicorp/azurerm&quot;]</title>
<path fill="none" stroke="black" d="M636.97,-143.97C707.51,-132.26 800.22,-116.89 867.55,-105.72"/>
<polygon fill="black" stroke="black" points="868.42,-109.12 877.72,-104.03 867.28,-102.21 868.42,-109.12"/>
</g>
<!-- [root] azurerm_resource_group.rg&#45;for&#45;each (expand)&#45;&gt;[root] var.location -->
<g id="edge11" class="edge">
<title>[root] azurerm_resource_group.rg&#45;for&#45;each (expand)&#45;&gt;[root] var.location</title>
<path fill="none" stroke="black" d="M534.27,-143.7C534.27,-135.98 534.27,-126.71 534.27,-118.11"/>
<polygon fill="black" stroke="black" points="537.77,-118.1 534.27,-108.1 530.77,-118.1 537.77,-118.1"/>
</g>
<!-- [root] azurerm_resource_group.rg&#45;for&#45;each (expand)&#45;&gt;[root] var.rg&#45;names -->
<g id="edge12" class="edge">
<title>[root] azurerm_resource_group.rg&#45;for&#45;each (expand)&#45;&gt;[root] var.rg&#45;names</title>
<path fill="none" stroke="black" d="M395.6,-144.89C303.52,-133.85 189.97,-119.46 128.15,-108"/>
<polygon fill="black" stroke="black" points="128.8,-104.56 118.32,-106.11 127.49,-111.43 128.8,-104.56"/>
</g>
<!-- [root] azurerm_resource_group.rg&#45;for&#45;each (expand)&#45;&gt;[root] local.custom_tags (expand) -->
<g id="edge9" class="edge">
<title>[root] azurerm_resource_group.rg&#45;for&#45;each (expand)&#45;&gt;[root] local.custom_tags (expand)</title>
<path fill="none" stroke="black" d="M477.57,-143.97C443.47,-133.72 399.98,-120.65 364.73,-110.06"/>
<polygon fill="black" stroke="black" points="365.6,-106.67 355.02,-107.15 363.59,-113.38 365.6,-106.67"/>
</g>
<!-- [root] data.azurerm_ssh_public_key.saurabh&#45;ssh&#45;key (expand) -->
<g id="node4" class="node">
<title>[root] data.azurerm_ssh_public_key.saurabh&#45;ssh&#45;key (expand)</title>
<polygon fill="none" stroke="black" points="1266.77,-180 923.77,-180 923.77,-144 1266.77,-144 1266.77,-180"/>
<text text-anchor="middle" x="1095.27" y="-158.3" font-family="Times,serif" font-size="14.00">data.azurerm_ssh_public_key.saurabh&#45;ssh&#45;key</text>
</g>
<!-- [root] data.azurerm_ssh_public_key.saurabh&#45;ssh&#45;key (expand)&#45;&gt;[root] provider[&quot;registry.terraform.io/hashicorp/azurerm&quot;] -->
<g id="edge13" class="edge">
<title>[root] data.azurerm_ssh_public_key.saurabh&#45;ssh&#45;key (expand)&#45;&gt;[root] provider[&quot;registry.terraform.io/hashicorp/azurerm&quot;]</title>
<path fill="none" stroke="black" d="M1061.27,-143.88C1041.61,-133.98 1016.78,-121.47 996.2,-111.11"/>
<polygon fill="black" stroke="black" points="997.58,-107.89 987.08,-106.51 994.44,-114.14 997.58,-107.89"/>
</g>
<!-- [root] var.envName -->
<g id="node6" class="node">
<title>[root] var.envName</title>
<polygon fill="none" stroke="black" points="350.27,-36 246.27,-36 246.27,0 356.27,0 356.27,-30 350.27,-36"/>
<polyline fill="none" stroke="black" points="350.27,-36 350.27,-30 "/>
<polyline fill="none" stroke="black" points="356.27,-30 350.27,-30 "/>
<text text-anchor="middle" x="301.27" y="-14.3" font-family="Times,serif" font-size="14.00">var.envName</text>
</g>
<!-- [root] local.custom_tags (expand)&#45;&gt;[root] var.envName -->
<g id="edge14" class="edge">
<title>[root] local.custom_tags (expand)&#45;&gt;[root] var.envName</title>
<path fill="none" stroke="black" d="M301.27,-71.7C301.27,-63.98 301.27,-54.71 301.27,-46.11"/>
<polygon fill="black" stroke="black" points="304.77,-46.1 301.27,-36.1 297.77,-46.1 304.77,-46.1"/>
</g>
<!-- [root] output.location (expand) -->
<g id="node11" class="node">
<title>[root] output.location (expand)</title>
<ellipse fill="none" stroke="black" cx="798.27" cy="-234" rx="153.27" ry="18"/>
<text text-anchor="middle" x="798.27" y="-230.3" font-family="Times,serif" font-size="14.00">[root] output.location (expand)</text>
</g>
<!-- [root] output.location (expand)&#45;&gt;[root] azurerm_resource_group.rg (expand) -->
<g id="edge15" class="edge">
<title>[root] output.location (expand)&#45;&gt;[root] azurerm_resource_group.rg (expand)</title>
<path fill="none" stroke="black" d="M798.27,-215.7C798.27,-207.98 798.27,-198.71 798.27,-190.11"/>
<polygon fill="black" stroke="black" points="801.77,-190.1 798.27,-180.1 794.77,-190.1 801.77,-190.1"/>
</g>
<!-- [root] output.rg&#45;id (expand) -->
<g id="node12" class="node">
<title>[root] output.rg&#45;id (expand)</title>
<ellipse fill="none" stroke="black" cx="1108.27" cy="-234" rx="138.38" ry="18"/>
<text text-anchor="middle" x="1108.27" y="-230.3" font-family="Times,serif" font-size="14.00">[root] output.rg&#45;id (expand)</text>
</g>
<!-- [root] output.rg&#45;id (expand)&#45;&gt;[root] azurerm_resource_group.rg (expand) -->
<g id="edge16" class="edge">
<title>[root] output.rg&#45;id (expand)&#45;&gt;[root] azurerm_resource_group.rg (expand)</title>
<path fill="none" stroke="black" d="M1042.53,-218.15C996.21,-207.7 933.75,-193.59 883.59,-182.27"/>
<polygon fill="black" stroke="black" points="884.26,-178.83 873.74,-180.04 882.72,-185.66 884.26,-178.83"/>
</g>
<!-- [root] output.ssh_public_key (expand) -->
<g id="node13" class="node">
<title>[root] output.ssh_public_key (expand)</title>
<ellipse fill="none" stroke="black" cx="1450.27" cy="-234" rx="185.47" ry="18"/>
<text text-anchor="middle" x="1450.27" y="-230.3" font-family="Times,serif" font-size="14.00">[root] output.ssh_public_key (expand)</text>
</g>
<!-- [root] output.ssh_public_key (expand)&#45;&gt;[root] data.azurerm_ssh_public_key.saurabh&#45;ssh&#45;key (expand) -->
<g id="edge17" class="edge">
<title>[root] output.ssh_public_key (expand)&#45;&gt;[root] data.azurerm_ssh_public_key.saurabh&#45;ssh&#45;key (expand)</title>
<path fill="none" stroke="black" d="M1372.37,-217.64C1319.22,-207.16 1248.47,-193.21 1191.77,-182.03"/>
<polygon fill="black" stroke="black" points="1192.2,-178.54 1181.71,-180.04 1190.84,-185.41 1192.2,-178.54"/>
</g>
<!-- [root] provider[&quot;registry.terraform.io/hashicorp/azurerm&quot;] (close) -->
<g id="node14" class="node">
<title>[root] provider[&quot;registry.terraform.io/hashicorp/azurerm&quot;] (close)</title>
<ellipse fill="none" stroke="black" cx="313.27" cy="-234" rx="313.04" ry="18"/>
<text text-anchor="middle" x="313.27" y="-230.3" font-family="Times,serif" font-size="14.00">[root] provider[&quot;registry.terraform.io/hashicorp/azurerm&quot;] (close)</text>
</g>
<!-- [root] provider[&quot;registry.terraform.io/hashicorp/azurerm&quot;] (close)&#45;&gt;[root] azurerm_resource_group.rg (expand) -->
<g id="edge18" class="edge">
<title>[root] provider[&quot;registry.terraform.io/hashicorp/azurerm&quot;] (close)&#45;&gt;[root] azurerm_resource_group.rg (expand)</title>
<path fill="none" stroke="black" d="M423.58,-217.15C494.12,-207.01 587.85,-193.51 680.42,-180.12"/>
<polygon fill="black" stroke="black" points="681.14,-183.56 690.53,-178.66 680.13,-176.63 681.14,-183.56"/>
</g>
<!-- [root] provider[&quot;registry.terraform.io/hashicorp/azurerm&quot;] (close)&#45;&gt;[root] azurerm_resource_group.rg&#45;count (expand) -->
<g id="edge19" class="edge">
<title>[root] provider[&quot;registry.terraform.io/hashicorp/azurerm&quot;] (close)&#45;&gt;[root] azurerm_resource_group.rg&#45;count (expand)</title>
<path fill="none" stroke="black" d="M297.2,-215.7C289.33,-207.22 279.72,-196.86 271.1,-187.58"/>
<polygon fill="black" stroke="black" points="273.52,-185.05 264.15,-180.1 268.39,-189.81 273.52,-185.05"/>
</g>
<!-- [root] provider[&quot;registry.terraform.io/hashicorp/azurerm&quot;] (close)&#45;&gt;[root] azurerm_resource_group.rg&#45;for&#45;each (expand) -->
<g id="edge20" class="edge">
<title>[root] provider[&quot;registry.terraform.io/hashicorp/azurerm&quot;] (close)&#45;&gt;[root] azurerm_resource_group.rg&#45;for&#45;each (expand)</title>
<path fill="none" stroke="black" d="M366.21,-216.23C397.59,-206.29 437.56,-193.63 470.65,-183.15"/>
<polygon fill="black" stroke="black" points="471.76,-186.47 480.23,-180.12 469.64,-179.8 471.76,-186.47"/>
</g>
<!-- [root] provider[&quot;registry.terraform.io/hashicorp/azurerm&quot;] (close)&#45;&gt;[root] data.azurerm_ssh_public_key.saurabh&#45;ssh&#45;key (expand) -->
<g id="edge21" class="edge">
<title>[root] provider[&quot;registry.terraform.io/hashicorp/azurerm&quot;] (close)&#45;&gt;[root] data.azurerm_ssh_public_key.saurabh&#45;ssh&#45;key (expand)</title>
<path fill="none" stroke="black" d="M479.06,-218.69C597.39,-208.41 760.63,-194.08 913.27,-180.18"/>
<polygon fill="black" stroke="black" points="913.66,-183.66 923.3,-179.27 913.03,-176.69 913.66,-183.66"/>
</g>
<!-- [root] root -->
<g id="node15" class="node">
<title>[root] root</title>
<ellipse fill="none" stroke="black" cx="953.27" cy="-306" rx="58.49" ry="18"/>
<text text-anchor="middle" x="953.27" y="-302.3" font-family="Times,serif" font-size="14.00">[root] root</text>
</g>
<!-- [root] root&#45;&gt;[root] output.location (expand) -->
<g id="edge22" class="edge">
<title>[root] root&#45;&gt;[root] output.location (expand)</title>
<path fill="none" stroke="black" d="M921.53,-290.67C899.23,-280.59 869.05,-266.96 844.13,-255.71"/>
<polygon fill="black" stroke="black" points="845.42,-252.45 834.87,-251.53 842.54,-258.83 845.42,-252.45"/>
</g>
<!-- [root] root&#45;&gt;[root] output.rg&#45;id (expand) -->
<g id="edge23" class="edge">
<title>[root] root&#45;&gt;[root] output.rg&#45;id (expand)</title>
<path fill="none" stroke="black" d="M985.01,-290.67C1007.4,-280.56 1037.71,-266.87 1062.68,-255.59"/>
<polygon fill="black" stroke="black" points="1064.28,-258.71 1071.96,-251.4 1061.4,-252.33 1064.28,-258.71"/>
</g>
<!-- [root] root&#45;&gt;[root] output.ssh_public_key (expand) -->
<g id="edge24" class="edge">
<title>[root] root&#45;&gt;[root] output.ssh_public_key (expand)</title>
<path fill="none" stroke="black" d="M1005.52,-297.64C1084.35,-286.54 1235.52,-265.25 1339.56,-250.59"/>
<polygon fill="black" stroke="black" points="1340.06,-254.06 1349.48,-249.2 1339.09,-247.13 1340.06,-254.06"/>
</g>
<!-- [root] root&#45;&gt;[root] provider[&quot;registry.terraform.io/hashicorp/azurerm&quot;] (close) -->
<g id="edge25" class="edge">
<title>[root] root&#45;&gt;[root] provider[&quot;registry.terraform.io/hashicorp/azurerm&quot;] (close)</title>
<path fill="none" stroke="black" d="M898.98,-299.06C803.34,-288.6 601.71,-266.55 461.94,-251.26"/>
<polygon fill="black" stroke="black" points="462.31,-247.78 451.99,-250.17 461.55,-254.74 462.31,-247.78"/>
</g>
</g>
</svg>
